<svg width="900px" height="969px"
 viewBox="0.00 0.00 327.20 351.87" xmlns="http://www.w3.org/2000/svg" xmlns:xlink="http://www.w3.org/1999/xlink">
<g id="graph0" class="graph" transform="scale(1.0 1.0) rotate(0) translate(4 347.865)">
<title>example2</title>
<polygon fill="#ffffff" stroke="transparent" points="-4,4 -4,-347.865 323.2046,-347.865 323.2046,4 -4,4"/>
<!-- main -->
<g id="node1" class="node">
<title>main</title>
<ellipse fill="none" stroke="#000000" cx="107.2046" cy="-318.4092" rx="33.4697" ry="25.4118"/>
<text text-anchor="start" x="91.7046" y="-322.2092" font-family="Times,serif" font-weight="bold" font-size="14.00" fill="#1020d0">main</text>
<text text-anchor="start" x="95.2046" y="-308.2092" font-family="Times,serif" font-size="14.00" fill="#1020d0">start</text>
</g>
<!-- &lt;b&gt;&lt;u&gt;init&lt;/u&gt;&lt;/b&gt; -->
<g id="node2" class="node">
<title>&lt;b&gt;&lt;u&gt;init&lt;/u&gt;&lt;/b&gt;</title>
<ellipse fill="none" stroke="#000000" cx="50.2046" cy="-183.9533" rx="27" ry="18"/>
<text text-anchor="start" x="40.2046" y="-181.2533" font-family="Times,serif" font-weight="bold" text-decoration="underline" font-size="14.00" fill="#000000">init</text>
</g>
<!-- main&#45;&gt;&lt;b&gt;&lt;u&gt;init&lt;/u&gt;&lt;/b&gt; -->
<g id="edge2" class="edge">
<title>main&#45;&gt;&lt;b&gt;&lt;u&gt;init&lt;/u&gt;&lt;/b&gt;</title>
<path fill="none" stroke="#000000" stroke-dasharray="1,5" d="M91.2849,-295.8339C83.7451,-284.324 75.1183,-269.8513 69.2046,-255.9533 63.1945,-241.8289 58.6723,-225.3181 55.5506,-211.673"/>
<polygon fill="#000000" stroke="#000000" points="58.9685,-210.919 53.4349,-201.884 52.1265,-212.3977 58.9685,-210.919"/>
</g>
<!-- parse -->
<g id="node5" class="node">
<title>parse</title>
<ellipse fill="none" stroke="#000000" cx="107.2046" cy="-237.9533" rx="29.4969" ry="18"/>
<text text-anchor="middle" x="107.2046" y="-234.2533" font-family="Times,serif" font-size="14.00" fill="#000000">parse</text>
</g>
<!-- main&#45;&gt;parse -->
<g id="edge1" class="edge">
<title>main&#45;&gt;parse</title>
<path fill="none" stroke="#000000" d="M107.2046,-292.9524C107.2046,-284.4427 107.2046,-274.909 107.2046,-266.1997"/>
<polygon fill="#000000" stroke="#000000" points="110.7047,-266.1095 107.2046,-256.1095 103.7047,-266.1095 110.7047,-266.1095"/>
</g>
<!-- cleanup -->
<g id="node6" class="node">
<title>cleanup</title>
<ellipse fill="none" stroke="#000000" cx="193.2046" cy="-237.9533" rx="38.1938" ry="18"/>
<text text-anchor="middle" x="193.2046" y="-234.2533" font-family="Times,serif" font-size="14.00" fill="#000000">cleanup</text>
</g>
<!-- main&#45;&gt;cleanup -->
<g id="edge3" class="edge">
<title>main&#45;&gt;cleanup</title>
<path fill="none" stroke="#000000" d="M128.463,-298.5212C140.5732,-287.1917 155.8057,-272.9413 168.4525,-261.1097"/>
<polygon fill="#000000" stroke="#000000" points="171.0303,-263.4909 175.9418,-254.1032 166.2481,-258.3791 171.0303,-263.4909"/>
</g>
<!-- printf -->
<g id="node7" class="node">
<title>printf</title>
<ellipse fill="none" stroke="#000000" cx="245.2046" cy="-37.4767" rx="30.5947" ry="18"/>
<text text-anchor="middle" x="245.2046" y="-33.7767" font-family="Times,serif" font-size="14.00" fill="#000000">printf</text>
</g>
<!-- main&#45;&gt;printf -->
<g id="edge4" class="edge">
<title>main&#45;&gt;printf</title>
<path fill="none" stroke="#ff0000" stroke-width="2" d="M139.8888,-313.0759C171.5443,-306.0002 217.9283,-290.1533 240.2046,-255.9533 278.4491,-197.2378 264.1125,-109.5263 253.1586,-65.2192"/>
<polygon fill="#ff0000" stroke="#ff0000" stroke-width="2" points="256.5195,-64.2363 250.6181,-55.4372 249.7442,-65.9959 256.5195,-64.2363"/>
<text text-anchor="middle" x="291.7046" y="-180.2533" font-family="Times,serif" font-size="14.00" fill="#000000">100 times</text>
</g>
<!-- mkString -->
<g id="node4" class="node">
<title>mkString</title>
<ellipse fill="none" stroke="#000000" cx="50.2046" cy="-37.4767" rx="50.41" ry="37.4533"/>
<text text-anchor="start" x="22.7046" y="-48.7767" font-family="Times,serif" font-size="14.00" fill="#000000">make</text>
<text text-anchor="start" x="22.7046" y="-33.7767" font-family="Times,serif" font-size="14.00" fill="#000000">a</text>
<text text-anchor="start" x="22.7046" y="-18.7767" font-family="Times,serif" font-size="14.00" fill="#000000">multi&#45;line</text>
</g>
<!-- &lt;b&gt;&lt;u&gt;init&lt;/u&gt;&lt;/b&gt;&#45;&gt;mkString -->
<g id="edge9" class="edge">
<title>&lt;b&gt;&lt;u&gt;init&lt;/u&gt;&lt;/b&gt;&#45;&gt;mkString</title>
<path fill="none" stroke="#000000" d="M50.2046,-165.6981C50.2046,-145.7052 50.2046,-112.8299 50.2046,-85.3741"/>
<polygon fill="#000000" stroke="#000000" points="53.7047,-85.1549 50.2046,-75.1549 46.7047,-85.155 53.7047,-85.1549"/>
</g>
<!-- compare -->
<g id="node3" class="node">
<title>compare</title>
<polygon fill="#c1b2ff" stroke="#c1b2ff" points="182.2046,-55.4767 118.2046,-55.4767 118.2046,-19.4767 182.2046,-19.4767 182.2046,-55.4767"/>
<text text-anchor="middle" x="150.2046" y="-33.7767" font-family="Times,serif" font-size="14.00" fill="#000000">compare</text>
</g>
<!-- execute -->
<g id="node8" class="node">
<title>execute</title>
<ellipse fill="none" stroke="#000000" cx="133.2046" cy="-129.9533" rx="37.8943" ry="18"/>
<text text-anchor="middle" x="133.2046" y="-126.2533" font-family="Times,serif" font-size="14.00" fill="#000000">execute</text>
</g>
<!-- parse&#45;&gt;execute -->
<g id="edge5" class="edge">
<title>parse&#45;&gt;execute</title>
<path fill="none" stroke="#000000" d="M111.498,-220.1193C115.557,-203.2587 121.7119,-177.6923 126.4323,-158.0843"/>
<polygon fill="#000000" stroke="#000000" points="129.8801,-158.7163 128.8179,-148.1748 123.0745,-157.0778 129.8801,-158.7163"/>
</g>
<!-- execute&#45;&gt;compare -->
<g id="edge8" class="edge">
<title>execute&#45;&gt;compare</title>
<path fill="none" stroke="#ff0000" d="M136.5632,-111.6829C138.9615,-98.637 142.2344,-80.833 144.9732,-65.9345"/>
<polygon fill="#ff0000" stroke="#ff0000" points="148.4871,-66.1771 146.8529,-55.7091 141.6025,-64.9115 148.4871,-66.1771"/>
</g>
<!-- execute&#45;&gt;mkString -->
<g id="edge6" class="edge">
<title>execute&#45;&gt;mkString</title>
<path fill="none" stroke="#000000" d="M117.9811,-112.9917C108.8347,-102.801 96.7955,-89.3872 85.4046,-76.6957"/>
<polygon fill="#000000" stroke="#000000" points="87.7119,-74.0264 78.4277,-68.9221 82.5024,-78.7021 87.7119,-74.0264"/>
</g>
<!-- execute&#45;&gt;printf -->
<g id="edge7" class="edge">
<title>execute&#45;&gt;printf</title>
<path fill="none" stroke="#000000" d="M152.2039,-114.2659C170.7163,-98.9805 198.9935,-75.6325 219.5075,-58.6944"/>
<polygon fill="#000000" stroke="#000000" points="221.7427,-61.3877 227.2254,-52.3218 217.2858,-55.9899 221.7427,-61.3877"/>
</g>
</g>
</svg>
