<svg width="900px" height="774px"
 viewBox="0.00 0.00 308.00 265.00" xmlns="http://www.w3.org/2000/svg" xmlns:xlink="http://www.w3.org/1999/xlink">
<g id="graph0" class="graph" transform="scale(1.0 1.0) rotate(0) translate(4 261)">
<title>example3</title>
<polygon fill="white" stroke="transparent" points="-4,4 -4,-261 304,-261 304,4 -4,4"/>
<!-- node0 -->
<g id="node1" class="node">
<title>node0</title>
<polygon fill="none" stroke="black" points="0,-71 0,-186 54,-186 54,-71 0,-71"/>
<text text-anchor="middle" x="27" y="-170.8" font-family="Times,serif" font-size="14.00"> </text>
<polyline fill="none" stroke="black" points="0,-163 54,-163 "/>
<text text-anchor="middle" x="27" y="-147.8" font-family="Times,serif" font-size="14.00"> </text>
<polyline fill="none" stroke="black" points="0,-140 54,-140 "/>
<text text-anchor="middle" x="27" y="-124.8" font-family="Times,serif" font-size="14.00"> </text>
<polyline fill="none" stroke="black" points="0,-117 54,-117 "/>
<text text-anchor="middle" x="27" y="-101.8" font-family="Times,serif" font-size="14.00"> </text>
<polyline fill="none" stroke="black" points="0,-94 54,-94 "/>
<text text-anchor="middle" x="27" y="-78.8" font-family="Times,serif" font-size="14.00"> </text>
</g>
<!-- node1 -->
<g id="node2" class="node">
<title>node1</title>
<polygon fill="none" stroke="black" points="90,-220.5 90,-256.5 177,-256.5 177,-220.5 90,-220.5"/>
<text text-anchor="middle" x="105" y="-234.8" font-family="Times,serif" font-size="14.00">n4</text>
<polyline fill="none" stroke="black" points="120,-220.5 120,-256.5 "/>
<text text-anchor="middle" x="138.5" y="-234.8" font-family="Times,serif" font-size="14.00">719</text>
<polyline fill="none" stroke="black" points="157,-220.5 157,-256.5 "/>
<text text-anchor="middle" x="167" y="-234.8" font-family="Times,serif" font-size="14.00"> </text>
</g>
<!-- node0&#45;&gt;node1 -->
<g id="edge1" class="edge">
<title>node0:f0&#45;&gt;node1:s</title>
<path fill="none" stroke="black" d="M54,-174.5C76.94,-174.5 69.66,-200.88 90,-211.5 96.81,-215.06 118.02,-212.17 130.01,-213.93"/>
<polygon fill="black" stroke="black" points="128.22,-216.94 138.5,-219.5 132.06,-211.09 128.22,-216.94"/>
</g>
<!-- node2 -->
<g id="node3" class="node">
<title>node2</title>
<polygon fill="none" stroke="black" points="90.5,-165.5 90.5,-201.5 176.5,-201.5 176.5,-165.5 90.5,-165.5"/>
<text text-anchor="middle" x="105" y="-179.8" font-family="Times,serif" font-size="14.00">a1</text>
<polyline fill="none" stroke="black" points="119.5,-165.5 119.5,-201.5 "/>
<text text-anchor="middle" x="138" y="-179.8" font-family="Times,serif" font-size="14.00">805</text>
<polyline fill="none" stroke="black" points="156.5,-165.5 156.5,-201.5 "/>
<text text-anchor="middle" x="166.5" y="-179.8" font-family="Times,serif" font-size="14.00"> </text>
</g>
<!-- node0&#45;&gt;node2 -->
<g id="edge2" class="edge">
<title>node0:f1&#45;&gt;node2:w</title>
<path fill="none" stroke="black" d="M54,-151.5C71.23,-151.5 70.18,-172.22 80.27,-180.31"/>
<polygon fill="black" stroke="black" points="79.41,-183.72 90,-183.5 81.58,-177.06 79.41,-183.72"/>
</g>
<!-- node3 -->
<g id="node4" class="node">
<title>node3</title>
<polygon fill="none" stroke="black" points="91.5,-110.5 91.5,-146.5 175.5,-146.5 175.5,-110.5 91.5,-110.5"/>
<text text-anchor="middle" x="105" y="-124.8" font-family="Times,serif" font-size="14.00">i9</text>
<polyline fill="none" stroke="black" points="118.5,-110.5 118.5,-146.5 "/>
<text text-anchor="middle" x="137" y="-124.8" font-family="Times,serif" font-size="14.00">718</text>
<polyline fill="none" stroke="black" points="155.5,-110.5 155.5,-146.5 "/>
<text text-anchor="middle" x="165.5" y="-124.8" font-family="Times,serif" font-size="14.00"> </text>
</g>
<!-- node0&#45;&gt;node3 -->
<g id="edge3" class="edge">
<title>node0:f2&#45;&gt;node3:w</title>
<path fill="none" stroke="black" d="M54,-128.5C66.17,-128.5 71.49,-128.5 80.23,-128.5"/>
<polygon fill="black" stroke="black" points="80.5,-132 90.5,-128.5 80.5,-125 80.5,-132"/>
</g>
<!-- node4 -->
<g id="node5" class="node">
<title>node4</title>
<polygon fill="none" stroke="black" points="90.5,-55.5 90.5,-91.5 176.5,-91.5 176.5,-55.5 90.5,-55.5"/>
<text text-anchor="middle" x="105" y="-69.8" font-family="Times,serif" font-size="14.00">e5</text>
<polyline fill="none" stroke="black" points="119.5,-55.5 119.5,-91.5 "/>
<text text-anchor="middle" x="138" y="-69.8" font-family="Times,serif" font-size="14.00">989</text>
<polyline fill="none" stroke="black" points="156.5,-55.5 156.5,-91.5 "/>
<text text-anchor="middle" x="166.5" y="-69.8" font-family="Times,serif" font-size="14.00"> </text>
</g>
<!-- node0&#45;&gt;node4 -->
<g id="edge4" class="edge">
<title>node0:f3&#45;&gt;node4:w</title>
<path fill="none" stroke="black" d="M54,-105.5C71.23,-105.5 70.18,-84.78 80.27,-76.69"/>
<polygon fill="black" stroke="black" points="81.58,-79.94 90,-73.5 79.41,-73.28 81.58,-79.94"/>
</g>
<!-- node5 -->
<g id="node6" class="node">
<title>node5</title>
<polygon fill="none" stroke="black" points="91.5,-0.5 91.5,-36.5 175.5,-36.5 175.5,-0.5 91.5,-0.5"/>
<text text-anchor="middle" x="105" y="-14.8" font-family="Times,serif" font-size="14.00">t2</text>
<polyline fill="none" stroke="black" points="118.5,-0.5 118.5,-36.5 "/>
<text text-anchor="middle" x="137" y="-14.8" font-family="Times,serif" font-size="14.00">959</text>
<polyline fill="none" stroke="black" points="155.5,-0.5 155.5,-36.5 "/>
<text text-anchor="middle" x="165.5" y="-14.8" font-family="Times,serif" font-size="14.00"> </text>
</g>
<!-- node0&#45;&gt;node5 -->
<g id="edge5" class="edge">
<title>node0:f4&#45;&gt;node5:n</title>
<path fill="none" stroke="black" d="M54,-82.5C76.94,-82.5 69.68,-56.16 90,-45.5 96.59,-42.04 116.98,-44.7 128.79,-43.04"/>
<polygon fill="black" stroke="black" points="130.94,-45.82 137.5,-37.5 127.18,-39.92 130.94,-45.82"/>
</g>
<!-- node6 -->
<g id="node7" class="node">
<title>node6</title>
<polygon fill="none" stroke="black" points="213,-147.5 213,-183.5 300,-183.5 300,-147.5 213,-147.5"/>
<text text-anchor="middle" x="228" y="-161.8" font-family="Times,serif" font-size="14.00">o1</text>
<polyline fill="none" stroke="black" points="243,-147.5 243,-183.5 "/>
<text text-anchor="middle" x="261.5" y="-161.8" font-family="Times,serif" font-size="14.00">794</text>
<polyline fill="none" stroke="black" points="280,-147.5 280,-183.5 "/>
<text text-anchor="middle" x="290" y="-161.8" font-family="Times,serif" font-size="14.00"> </text>
</g>
<!-- node2&#45;&gt;node6 -->
<g id="edge6" class="edge">
<title>node2:p&#45;&gt;node6:nw</title>
<path fill="none" stroke="black" d="M177,-183.5C188.5,-183.5 196.22,-189.34 203.86,-188.43"/>
<polygon fill="black" stroke="black" points="205.86,-191.33 213,-183.5 202.54,-185.17 205.86,-191.33"/>
</g>
<!-- node7 -->
<g id="node8" class="node">
<title>node7</title>
<polygon fill="none" stroke="black" points="213.5,-73.5 213.5,-109.5 299.5,-109.5 299.5,-73.5 213.5,-73.5"/>
<text text-anchor="middle" x="228" y="-87.8" font-family="Times,serif" font-size="14.00">s7</text>
<polyline fill="none" stroke="black" points="242.5,-73.5 242.5,-109.5 "/>
<text text-anchor="middle" x="261" y="-87.8" font-family="Times,serif" font-size="14.00">659</text>
<polyline fill="none" stroke="black" points="279.5,-73.5 279.5,-109.5 "/>
<text text-anchor="middle" x="289.5" y="-87.8" font-family="Times,serif" font-size="14.00"> </text>
</g>
<!-- node4&#45;&gt;node7 -->
<g id="edge7" class="edge">
<title>node4:p&#45;&gt;node7:sw</title>
<path fill="none" stroke="black" d="M177,-73.5C189.37,-73.5 197.54,-67.01 205.75,-68.48"/>
<polygon fill="black" stroke="black" points="204.08,-71.56 214.5,-73.5 207.57,-65.49 204.08,-71.56"/>
</g>
</g>
</svg>
